{"asset":{"generator":"FBX2glTF v0.9.7","version":"2.0"},"scene":0,"extensionsUsed":["KHR_lights_punctual"],"buffers":[{"byteLength":946720,"uri":"data:application/octet-stream;base64,"}],"bufferViews":[{"buffer":0,"byteLength":36600,"byteOffset":0,"target":34963},{"buffer":0,"byteLength":42912,"byteOffset":36600,"target":34962},{"buffer":0,"byteLength":42912,"byteOffset":79512,"target":34962},{"buffer":0,"byteLength":28608,"byteOffset":122424,"target":34962},{"buffer":0,"byteLength":7200,"byteOffset":151032,"target":34963},{"buffer":0,"byteLength":9792,"byteOffset":158232,"target":34962},{"buffer":0,"byteLength":9792,"byteOffset":168024,"target":34962},{"buffer":0,"byteLength":6528,"byteOffset":177816,"target":34962},{"buffer":0,"byteLength":3000,"byteOffset":184344,"target":34963},{"buffer":0,"byteLength":3672,"byteOffset":187344,"target":34962},{"buffer":0,"byteLength":3672,"byteOffset":191016,"target":34962},{"buffer":0,"byteLength":2448,"byteOffset":194688,"target":34962},{"buffer":0,"byteLength":2400,"byteOffset":197136,"target":34963},{"buffer":0,"byteLength":3672,"byteOffset":199536,"target":34962},{"buffer":0,"byteLength":3672,"byteOffset":203208,"target":34962},{"buffer":0,"byteLength":2448,"byteOffset":206880,"target":34962},{"buffer":0,"byteLength":49800,"byteOffset":209328,"target":34963},{"buffer":0,"byteLength":53760,"byteOffset":259128,"target":34962},{"buffer":0,"byteLength":53760,"byteOffset":312888,"target":34962},{"buffer":0,"byteLength":35840,"byteOffset":366648,"target":34962},{"buffer":0,"byteLength":52200,"byteOffset":402488,"target":34963},{"buffer":0,"byteLength":56568,"byteOffset":454688,"target":34962},{"buffer":0,"byteLength":56568,"byteOffset":511256,"target":34962},{"buffer":0,"byteLength":37712,"byteOffset":567824,"target":34962},{"buffer":0,"byteLength":19800,"byteOffset":605536,"target":34963},{"buffer":0,"byteLength":22536,"byteOffset":625336,"target":34962},{"buffer":0,"byteLength":22536,"byteOffset":647872,"target":34962},{"buffer":0,"byteLength":15024,"byteOffset":670408,"target":34962},{"buffer":0,"byteLength":2400,"byteOffset":685432,"target":34963},{"buffer":0,"byteLength":3672,"byteOffset":687832,"target":34962},{"buffer":0,"byteLength":3672,"byteOffset":691504,"target":34962},{"buffer":0,"byteLength":2448,"byteOffset":695176,"target":34962},{"buffer":0,"byteLength":9000,"byteOffset":697624,"target":34963},{"buffer":0,"byteLength":11352,"byteOffset":706624,"target":34962},{"buffer":0,"byteLength":11352,"byteOffset":717976,"target":34962},{"buffer":0,"byteLength":7568,"byteOffset":729328,"target":34962},{"buffer":0,"byteLength":26496,"byteOffset":736896,"target":34963},{"buffer":0,"byteLength":29556,"byteOffset":763392,"target":34962},{"buffer":0,"byteLength":29556,"byteOffset":792948,"target":34962},{"buffer":0,"byteLength":19704,"byteOffset":822504,"target":34962},{"buffer":0,"byteLength":26496,"byteOffset":842208,"target":34963},{"buffer":0,"byteLength":29256,"byteOffset":868704,"target":34962},{"buffer":0,"byteLength":29256,"byteOffset":897960,"target":34962},{"buffer":0,"byteLength":19504,"byteOffset":927216,"target":34962}],"scenes":[{"name":"Root Scene","nodes":[0]}],"accessors":[{"componentType":5123,"type":"SCALAR","count":18300,"bufferView":0,"byteOffset":0},{"componentType":5126,"type":"VEC3","count":3576,"bufferView":1,"byteOffset":0,"min":[-0.0115250693634152,-0.0111976191401482,0.00332818203605711],"max":[0.0107593089342117,0.011130690574646,0.0142727689817548]},{"componentType":5126,"type":"VEC3","count":3576,"bufferView":2,"byteOffset":0},{"componentType":5126,"type":"VEC2","count":3576,"bufferView":3,"byteOffset":0},{"componentType":5123,"type":"SCALAR","count":3600,"bufferView":4,"byteOffset":0},{"componentType":5126,"type":"VEC3","count":816,"bufferView":5,"byteOffset":0,"min":[-0.0120169399306178,-0.0117025803774595,0.00281457090750337],"max":[0.0112511795014143,0.0116114197298884,0.0126703698188066]},{"componentType":5126,"type":"VEC3","count":816,"bufferView":6,"byteOffset":0},{"componentType":5126,"type":"VEC2","count":816,"bufferView":7,"byteOffset":0},{"componentType":5123,"type":"SCALAR","count":1500,"bufferView":8,"byteOffset":0},{"componentType":5126,"type":"VEC3","count":306,"bufferView":9,"byteOffset":0,"min":[-0.0127190602943301,-0.0124060790985823,0.00265647494234145],"max":[0.0119532998651266,0.0123149296268821,0.00290120695717633]},{"componentType":5126,"type":"VEC3","count":306,"bufferView":10,"byteOffset":0},{"componentType":5126,"type":"VEC2","count":306,"bufferView":11,"byteOffset":0},{"componentType":5123,"type":"SCALAR","count":1200,"bufferView":12,"byteOffset":0},{"componentType":5126,"type":"VEC3","count":306,"bufferView":13,"byteOffset":0,"min":[-0.00994631461799145,-0.00955229345709085,0.00494622392579913],"max":[0.00918055418878794,0.00961229018867016,0.00533700827509165]},{"componentType":5126,"type":"VEC3","count":306,"bufferView":14,"byteOffset":0},{"componentType":5126,"type":"VEC2","count":306,"bufferView":15,"byteOffset":0},{"componentType":5123,"type":"SCALAR","count":24900,"bufferView":16,"byteOffset":0},{"componentType":5126,"type":"VEC3","count":4480,"bufferView":17,"byteOffset":0,"min":[-0.00548064149916172,-0.00539808208122849,-0.0437109060585499],"max":[0.00529432762414217,0.00539813190698624,-0.00902911275625229]},{"componentType":5126,"type":"VEC3","count":4480,"bufferView":18,"byteOffset":0},{"componentType":5126,"type":"VEC2","count":4480,"bufferView":19,"byteOffset":0},{"componentType":5123,"type":"SCALAR","count":26100,"bufferView":20,"byteOffset":0},{"componentType":5126,"type":"VEC3","count":4714,"bufferView":21,"byteOffset":0,"min":[-0.0262446589767933,-0.0261865388602018,-0.071621909737587],"max":[0.026025639846921,0.0261868182569742,-0.043702594935894]},{"componentType":5126,"type":"VEC3","count":4714,"bufferView":22,"byteOffset":0},{"componentType":5126,"type":"VEC2","count":4714,"bufferView":23,"byteOffset":0},{"componentType":5123,"type":"SCALAR","count":9900,"bufferView":24,"byteOffset":0},{"componentType":5126,"type":"VEC3","count":1878,"bufferView":25,"byteOffset":0,"min":[-0.0188291799277067,-0.0188662093132734,-0.00535973580554128],"max":[0.0188291799277067,0.0188663993030787,0.0213392898440361]},{"componentType":5126,"type":"VEC3","count":1878,"bufferView":26,"byteOffset":0},{"componentType":5126,"type":"VEC2","count":1878,"bufferView":27,"byteOffset":0},{"componentType":5123,"type":"SCALAR","count":1200,"bufferView":28,"byteOffset":0},{"componentType":5126,"type":"VEC3","count":306,"bufferView":29,"byteOffset":0,"min":[-0.0187697391957045,-0.0188066493719816,0.0168012995272875],"max":[0.0187697391957045,0.0188068393617868,0.0203501600772142]},{"componentType":5126,"type":"VEC3","count":306,"bufferView":30,"byteOffset":0},{"componentType":5126,"type":"VEC2","count":306,"bufferView":31,"byteOffset":0},{"componentType":5123,"type":"SCALAR","count":4500,"bufferView":32,"byteOffset":0},{"componentType":5126,"type":"VEC3","count":946,"bufferView":33,"byteOffset":0,"min":[-0.0102854296565056,-0.0103056598454714,-0.0101782502606511],"max":[0.0102854296565056,0.0103057594969869,-0.00515529187396169]},{"componentType":5126,"type":"VEC3","count":946,"bufferView":34,"byteOffset":0},{"componentType":5126,"type":"VEC2","count":946,"bufferView":35,"byteOffset":0},{"componentType":5123,"type":"SCALAR","count":13248,"bufferView":36,"byteOffset":0},{"componentType":5126,"type":"VEC3","count":2463,"bufferView":37,"byteOffset":0,"min":[-0.000612150994129479,-0.0305241793394089,-0.00358560285530984],"max":[0.000693013600539416,-0.0127396089956164,0.0172687396407127]},{"componentType":5126,"type":"VEC3","count":2463,"bufferView":38,"byteOffset":0},{"componentType":5126,"type":"VEC2","count":2463,"bufferView":39,"byteOffset":0},{"componentType":5123,"type":"SCALAR","count":13248,"bufferView":40,"byteOffset":0},{"componentType":5126,"type":"VEC3","count":2438,"bufferView":41,"byteOffset":0,"min":[-0.000612150994129479,0.012564430013299,-0.0039024620782584],"max":[0.000693013600539416,0.0303052086383104,0.016983799636364]},{"componentType":5126,"type":"VEC3","count":2438,"bufferView":42,"byteOffset":0},{"componentType":5126,"type":"VEC2","count":2438,"bufferView":43,"byteOffset":0}],"images":[{"name":"Untitled_001","uri":"data:image/png;base64,"},{"name":"Untitled_001_png","uri":"data:image/png;base64,"},{"name":"Untitled_002","uri":"data:image/png;base64,"}],"samplers":[{}],"textures":[{"name":"Untitled_001","sampler":0,"source":0},{"name":"Untitled_001_png","sampler":0,"source":1},{"name":"Untitled_002","sampler":0,"source":2}],"materials":[{"name":"Material.005","alphaMode":"OPAQUE","extras":{"fromFBX":{"shadingModel":"Lambert","isTruePBR":false}},"pbrMetallicRoughness":{"baseColorTexture":{"index":0,"texCoord":0},"baseColorFactor":[1,1,1,1],"metallicFactor":0.200000002980232,"roughnessFactor":0.800000011920929}},{"name":"Material.008","alphaMode":"OPAQUE","extras":{"fromFBX":{"shadingModel":"Lambert","isTruePBR":false}},"pbrMetallicRoughness":{"baseColorTexture":{"index":0,"texCoord":0},"baseColorFactor":[1,1,1,1],"metallicFactor":0.200000002980232,"roughnessFactor":0.800000011920929}},{"name":"Material.010","alphaMode":"OPAQUE","extras":{"fromFBX":{"shadingModel":"Lambert","isTruePBR":false}},"pbrMetallicRoughness":{"baseColorTexture":{"index":0,"texCoord":0},"baseColorFactor":[1,1,1,1],"metallicFactor":0.200000002980232,"roughnessFactor":0.800000011920929}},{"name":"Material.011","alphaMode":"OPAQUE","extras":{"fromFBX":{"shadingModel":"Lambert","isTruePBR":false}},"pbrMetallicRoughness":{"baseColorTexture":{"index":0,"texCoord":0},"baseColorFactor":[1,1,1,1],"metallicFactor":0.200000002980232,"roughnessFactor":0.800000011920929}},{"name":"Material.003","alphaMode":"OPAQUE","extras":{"fromFBX":{"shadingModel":"Lambert","isTruePBR":false}},"pbrMetallicRoughness":{"baseColorTexture":{"index":1,"texCoord":0},"baseColorFactor":[1,1,1,1],"metallicFactor":0.200000002980232,"roughnessFactor":0.800000011920929}},{"name":"Material.004","alphaMode":"OPAQUE","extras":{"fromFBX":{"shadingModel":"Lambert","isTruePBR":false}},"pbrMetallicRoughness":{"baseColorTexture":{"index":2,"texCoord":0},"baseColorFactor":[1,1,1,1],"metallicFactor":0.200000002980232,"roughnessFactor":0.800000011920929}},{"name":"Material","alphaMode":"OPAQUE","extras":{"fromFBX":{"shadingModel":"Lambert","isTruePBR":false}},"pbrMetallicRoughness":{"baseColorTexture":{"index":0,"texCoord":0},"baseColorFactor":[1,1,1,1],"metallicFactor":0.200000002980232,"roughnessFactor":0.800000011920929}},{"name":"Material.012","alphaMode":"OPAQUE","extras":{"fromFBX":{"shadingModel":"Lambert","isTruePBR":false}},"pbrMetallicRoughness":{"baseColorTexture":{"index":0,"texCoord":0},"baseColorFactor":[1,1,1,1],"metallicFactor":0.200000002980232,"roughnessFactor":0.800000011920929}},{"name":"Material.013","alphaMode":"OPAQUE","extras":{"fromFBX":{"shadingModel":"Lambert","isTruePBR":false}},"pbrMetallicRoughness":{"baseColorTexture":{"index":0,"texCoord":0},"baseColorFactor":[1,1,1,1],"metallicFactor":0.200000002980232,"roughnessFactor":0.800000011920929}},{"name":"Material.006","alphaMode":"OPAQUE","extras":{"fromFBX":{"shadingModel":"Lambert","isTruePBR":false}},"pbrMetallicRoughness":{"baseColorTexture":{"index":0,"texCoord":0},"baseColorFactor":[1,1,1,1],"metallicFactor":0.200000002980232,"roughnessFactor":0.800000011920929}},{"name":"Material.002","alphaMode":"OPAQUE","extras":{"fromFBX":{"shadingModel":"Lambert","isTruePBR":false}},"pbrMetallicRoughness":{"baseColorTexture":{"index":0,"texCoord":0},"baseColorFactor":[1,1,1,1],"metallicFactor":0.200000002980232,"roughnessFactor":0.800000011920929}}],"meshes":[{"name":"Sphere.002","primitives":[{"material":0,"mode":4,"attributes":{"NORMAL":2,"POSITION":1,"TEXCOORD_0":3},"indices":0},{"material":1,"mode":4,"attributes":{"NORMAL":6,"POSITION":5,"TEXCOORD_0":7},"indices":4},{"material":2,"mode":4,"attributes":{"NORMAL":10,"POSITION":9,"TEXCOORD_0":11},"indices":8},{"material":3,"mode":4,"attributes":{"NORMAL":14,"POSITION":13,"TEXCOORD_0":15},"indices":12}]},{"name":"Sphere.001","primitives":[{"material":4,"mode":4,"attributes":{"NORMAL":18,"POSITION":17,"TEXCOORD_0":19},"indices":16},{"material":5,"mode":4,"attributes":{"NORMAL":22,"POSITION":21,"TEXCOORD_0":23},"indices":20},{"material":6,"mode":4,"attributes":{"NORMAL":26,"POSITION":25,"TEXCOORD_0":27},"indices":24},{"material":7,"mode":4,"attributes":{"NORMAL":30,"POSITION":29,"TEXCOORD_0":31},"indices":28},{"material":8,"mode":4,"attributes":{"NORMAL":34,"POSITION":33,"TEXCOORD_0":35},"indices":32},{"material":9,"mode":4,"attributes":{"NORMAL":38,"POSITION":37,"TEXCOORD_0":39},"indices":36},{"material":10,"mode":4,"attributes":{"NORMAL":42,"POSITION":41,"TEXCOORD_0":43},"indices":40}]}],"cameras":[{"name":"","type":"perspective","perspective":{"znear":10,"zfar":10000,"aspectRatio":1.77777802944183,"yfov":0.399596393108368}}],"nodes":[{"name":"RootNode","translation":[0,0,0],"rotation":[0,0,0,1],"scale":[1,1,1],"children":[1,2,3,4,5]},{"name":"Sun","translation":[-39.8812599182129,82.7194442749023,10.7927598953247],"rotation":[0.184474959969521,-0.174905747175217,0.275178521871567,0.927175164222717],"scale":[100,99.9999923706055,99.9999923706055],"extensions":{"KHR_lights_punctual":{"light":0}}},{"name":"Sphere.003","translation":[0,0.694801867008209,0.114340998232365],"rotation":[-0.70710676908493,0,0,0.70710676908493],"scale":[163.65299987793,163.65299987793,163.65299987793]},{"name":"Sphere.002","translation":[2.6172821521759,32.8104286193848,0.0856565460562706],"rotation":[-0.70710676908493,0,0,0.70710676908493],"scale":[597.240173339844,597.240173339844,597.240173339844],"mesh":0},{"name":"Sphere.001","translation":[2.51927185058594,26.6254997253418,0.0856565460562706],"rotation":[-0.70710676908493,0,0,0.70710676908493],"scale":[364.942993164063,364.942993164063,364.942993164063],"mesh":1},{"name":"Camera","translation":[-34.5963897705078,32.2156791687012,-10.4376192092896],"rotation":[-0.0835656523704529,-0.777336239814758,-0.106180250644684,0.614402770996094],"scale":[100,100.000007629395,100.000007629395],"camera":0}],"extensions":{"KHR_lights_punctual":{"lights":[{"name":"","color":[4.46000003814697,4.46000003814697,4.46000003814697],"intensity":1,"type":"directional"}]}}}